<?xml version="1.0" standalone="no"?><!DOCTYPE svg PUBLIC "-//W3C//DTD SVG 1.1//EN" "http://www.w3.org/Graphics/SVG/1.1/DTD/svg11.dtd"><svg width="100%" height="100%" viewBox="0 0 800 99" version="1.1" xmlns="http://www.w3.org/2000/svg" xmlns:xlink="http://www.w3.org/1999/xlink" xml:space="preserve" style="fill-rule:evenodd;clip-rule:evenodd;stroke-linejoin:round;stroke-miterlimit:1.41421;"><g><path d="M113.09,77.246l28.128,0l0,-8.343l-6.932,-1.472l0,-32.194l10.548,0l0,-9.815l-10.548,0l0,-5.791c0,-2.356 0.603,-4.123 1.808,-5.399c1.206,-1.178 2.914,-1.865 5.224,-1.865c1.005,0 1.909,0.098 2.612,0.197c0.703,0.098 1.507,0.196 2.31,0.294l1.206,-10.404c-1.507,-0.295 -2.913,-0.589 -4.119,-0.687c-1.306,-0.197 -2.511,-0.295 -3.717,-0.295c-6.228,0 -11.05,1.571 -14.465,4.712c-3.416,3.14 -5.224,7.656 -5.224,13.447l0,5.791l-7.835,0l0,9.815l7.835,0l0,32.194l-6.831,1.472l0,8.343Z" style="fill:#231f20;fill-rule:nonzero;"/><path d="M164.439,12.367l0,55.064l-6.931,1.472l0,8.343l28.127,0l0,-8.343l-6.931,-1.472l0,-64.977l-21.899,0l0,8.441l7.634,1.472Z" style="fill:#231f20;fill-rule:nonzero;"/><path d="M242.68,77.246l0,-8.343l-4.42,-0.589c-0.101,-0.687 -0.101,-1.374 -0.101,-2.061c-0.1,-0.687 -0.1,-1.472 -0.1,-2.258l0,-21.397c0,-5.791 -2.009,-10.306 -6.128,-13.447c-4.118,-3.141 -9.443,-4.711 -15.972,-4.711c-4.018,0 -7.735,0.589 -11.05,1.767c-3.415,1.178 -6.429,2.65 -9.041,4.318l-0.1,11.582l10.849,0l0.904,-5.594c0.803,-0.491 1.808,-0.982 3.114,-1.276c1.306,-0.393 2.712,-0.589 4.319,-0.589c2.914,0 5.124,0.687 6.53,2.061c1.507,1.374 2.21,3.337 2.21,5.791l0,5.104l-7.233,0c-7.735,0 -13.662,1.276 -17.579,3.926c-4.018,2.65 -6.028,6.478 -6.028,11.288c0,4.809 1.507,8.539 4.621,11.287c3.014,2.748 7.133,4.123 12.356,4.123c3.114,0 5.927,-0.589 8.338,-1.767c2.511,-1.178 4.52,-2.748 6.228,-4.613c0.201,0.883 0.402,1.865 0.703,2.748c0.302,0.883 0.603,1.767 1.005,2.65l16.575,0ZM208.927,66.449c-1.205,-0.981 -1.808,-2.355 -1.808,-4.122c0,-1.963 0.804,-3.632 2.411,-5.006c1.507,-1.472 3.817,-2.159 6.931,-2.159l7.233,0l0,7.95c-1.005,1.374 -2.311,2.552 -4.119,3.435c-1.707,0.884 -3.717,1.375 -5.826,1.375c-2.11,0 -3.717,-0.491 -4.822,-1.473Z" style="fill:#231f20;fill-rule:nonzero;"/><path d="M256.472,12.662l0,12.76l-7.835,0l0,9.815l7.835,0l0,26.403c0,5.791 1.306,10.011 4.018,12.662c2.612,2.65 6.429,3.926 11.352,3.926c1.908,0 3.616,-0.099 5.123,-0.295c1.607,-0.294 3.214,-0.687 4.822,-1.08l-1.306,-10.109c-0.904,0.196 -1.708,0.294 -2.411,0.392c-0.804,0.099 -1.607,0.099 -2.612,0.099c-1.406,0 -2.612,-0.393 -3.415,-1.276c-0.904,-0.884 -1.306,-2.356 -1.306,-4.319l0,-26.403l9.342,0l0,-9.815l-9.342,0l0,-12.76l-14.265,0Z" style="fill:#231f20;fill-rule:nonzero;"/><path d="M362.354,56.438l0,10.993l-7.634,1.472l0,8.343l29.533,0l0,-8.343l-7.634,-1.472l0,-50.058l7.634,-1.472l0,-8.441l-26.319,0l-18.383,51.432l-0.301,0l-18.182,-51.432l-18.685,0l-7.634,0l0,8.441l7.634,1.472l0,50.058l-7.634,1.472l0,8.343l29.634,0l0,-8.343l-7.635,-1.472l0,-10.993l-1.406,-30.624l0.301,0l18.986,51.432l9.644,0l19.086,-51.628l0.301,0l-1.306,30.82Z" style="fill:#231f20;fill-rule:nonzero;"/><path d="M444.114,77.246l0,-8.343l-4.42,-0.589c-0.1,-0.687 -0.1,-1.374 -0.1,-2.061c-0.101,-0.687 -0.101,-1.472 -0.101,-2.258l0,-21.397c0,-5.791 -2.009,-10.306 -6.127,-13.447c-4.119,-3.141 -9.443,-4.711 -15.973,-4.711c-4.018,0 -7.735,0.589 -11.05,1.767c-3.415,1.178 -6.429,2.65 -9.04,4.318l-0.101,11.582l10.849,0l0.904,-5.594c0.804,-0.491 1.808,-0.982 3.114,-1.276c1.306,-0.393 2.713,-0.589 4.32,-0.589c2.913,0 5.123,0.687 6.529,2.061c1.507,1.374 2.21,3.337 2.21,5.791l0,5.104l-7.232,0c-7.735,0 -13.662,1.276 -17.58,3.926c-4.018,2.65 -6.027,6.478 -6.027,11.288c0,4.809 1.507,8.539 4.621,11.287c3.013,2.748 7.132,4.123 12.356,4.123c3.114,0 5.926,-0.589 8.337,-1.767c2.512,-1.178 4.521,-2.748 6.229,-4.613c0.2,0.883 0.401,1.865 0.703,2.748c0.301,0.883 0.602,1.767 1.004,2.65l16.575,0ZM410.362,66.449c-1.206,-0.981 -1.809,-2.355 -1.809,-4.122c0,-1.963 0.804,-3.632 2.411,-5.006c1.507,-1.472 3.818,-2.159 6.932,-2.159l7.232,0l0,7.95c-1.004,1.374 -2.31,2.552 -4.118,3.435c-1.708,0.884 -3.717,1.375 -5.827,1.375c-2.109,0 -3.716,-0.491 -4.821,-1.473Z" style="fill:#231f20;fill-rule:nonzero;"/><path d="M459.517,35.237l0,52.119l-6.931,1.374l0,8.444l28.127,0l0,-8.444l-6.931,-1.374l0,-15.018c1.607,1.964 3.415,3.436 5.525,4.417c2.21,0.982 4.721,1.473 7.433,1.473c6.53,0 11.553,-2.356 15.269,-6.969c3.617,-4.712 5.425,-10.797 5.425,-18.551l0,-0.982c0,-8.146 -1.808,-14.722 -5.425,-19.728c-3.716,-5.104 -8.739,-7.558 -15.369,-7.558c-2.913,0 -5.425,0.589 -7.635,1.767c-2.21,1.276 -4.018,2.944 -5.625,5.202l-0.703,-5.987l-20.794,0l0,8.441l7.634,1.374ZM493.069,52.708c0,4.613 -0.804,8.147 -2.411,10.797c-1.607,2.65 -4.119,4.024 -7.634,4.024c-2.21,0 -4.119,-0.393 -5.626,-1.178c-1.507,-0.785 -2.712,-1.865 -3.616,-3.337l0,-22.673c0.904,-1.669 2.109,-2.847 3.616,-3.73c1.507,-0.883 3.416,-1.276 5.525,-1.276c3.416,0 6.027,1.472 7.635,4.515c1.707,3.043 2.511,6.969 2.511,11.876l0,0.982Z" style="fill:#231f20;fill-rule:nonzero;"/><path d="M521.357,49.96c0,12.563 2.511,23.164 7.534,31.899c4.922,8.736 10.548,14.334 16.876,16.984l0.302,0l2.511,-6.871c-4.219,-3.242 -7.835,-8.346 -10.749,-15.315c-2.913,-6.871 -4.319,-15.802 -4.319,-26.599l0,-1.276c0,-10.797 1.406,-19.729 4.319,-26.698c2.914,-6.87 6.53,-11.974 10.749,-15.115l-2.511,-6.969l-0.302,0c-6.328,2.552 -11.954,8.245 -16.876,16.98c-5.023,8.736 -7.534,19.336 -7.534,31.9l0,1.08Z" style="fill:#231f20;fill-rule:nonzero;"/><path d="M616.635,41.813c0,-10.11 -3.014,-18.551 -8.941,-25.323c-6.027,-6.675 -13.863,-10.012 -23.506,-10.012c-9.744,0 -17.479,3.337 -23.406,10.012c-5.927,6.772 -8.84,15.213 -8.84,25.323l0,1.08c0,10.208 2.913,18.649 8.84,25.323c5.927,6.674 13.762,10.012 23.406,10.012c9.643,0 17.479,-3.338 23.506,-10.012c5.927,-6.674 8.941,-15.115 8.941,-25.323l0,-1.08ZM602.37,42.893c0,7.361 -1.507,13.25 -4.52,17.765c-3.114,4.515 -7.635,6.675 -13.662,6.675c-6.027,0 -10.447,-2.16 -13.461,-6.675c-3.014,-4.515 -4.521,-10.404 -4.521,-17.765l0,-1.178c0,-7.263 1.507,-13.153 4.421,-17.668c3.013,-4.416 7.534,-6.674 13.561,-6.674c5.927,0 10.548,2.258 13.561,6.773c3.114,4.515 4.621,10.404 4.621,17.569l0,1.178Z" style="fill:#231f20;fill-rule:nonzero;"/><path d="M669.879,30.329c-2.009,-1.668 -4.923,-3.043 -8.639,-4.22c-3.617,-1.08 -7.534,-1.571 -11.653,-1.571c-6.831,0 -11.954,1.571 -15.671,4.711c-3.616,3.141 -5.525,6.871 -5.525,11.19c0,4.22 1.607,7.558 4.822,10.011c3.214,2.454 7.936,4.319 14.164,5.595c4.119,0.785 6.931,1.865 8.438,2.945c1.607,1.079 2.311,2.454 2.311,3.926c0,1.767 -0.704,3.239 -2.21,4.22c-1.608,0.982 -3.818,1.571 -6.731,1.571c-1.607,0 -3.114,-0.196 -4.52,-0.589c-1.507,-0.295 -2.713,-0.785 -3.516,-1.472l-2.009,-6.773l-9.945,0l0.1,11.582c2.712,2.258 5.726,3.926 9.142,5.006c3.415,1.178 7.132,1.767 11.25,1.767c6.731,0 12.055,-1.473 16.174,-4.417c4.118,-2.945 6.127,-6.773 6.127,-11.386c0,-4.417 -1.507,-7.754 -4.721,-10.306c-3.114,-2.454 -8.036,-4.319 -14.566,-5.595c-4.219,-0.785 -7.032,-1.668 -8.438,-2.748c-1.406,-1.08 -2.11,-2.356 -2.11,-3.926c0,-1.669 0.704,-3.043 2.21,-4.122c1.407,-1.08 3.416,-1.669 5.927,-1.669c1.808,0 3.416,0.294 4.922,0.785c1.507,0.491 2.713,1.178 3.717,1.865l1.507,6.478l9.644,0l-0.201,-12.858Z" style="fill:#231f20;fill-rule:nonzero;"/><path d="M690.639,12.367l0,55.064l-6.931,1.472l0,8.343l28.127,0l0,-8.343l-6.931,-1.472l0,-64.977l-21.899,0l0,8.441l7.634,1.472Z" style="fill:#231f20;fill-rule:nonzero;"/><path d="M719.55,51.825c0,7.852 2.21,14.134 6.63,19.041c4.42,4.908 10.548,7.362 18.484,7.362c7.735,0 13.862,-2.454 18.282,-7.362c4.42,-4.907 6.63,-11.189 6.63,-19.041l0,-0.982c0,-7.754 -2.21,-14.134 -6.63,-19.042c-4.42,-4.907 -10.547,-7.361 -18.383,-7.361c-7.835,0 -13.963,2.454 -18.383,7.361c-4.42,5.006 -6.63,11.288 -6.63,19.042l0,0.982ZM733.815,50.843c0,-4.613 0.904,-8.343 2.611,-11.288c1.708,-2.846 4.42,-4.318 8.137,-4.318c3.717,0 6.429,1.472 8.137,4.318c1.808,2.945 2.612,6.675 2.612,11.288l0,0.982c0,4.711 -0.804,8.539 -2.512,11.385c-1.808,2.847 -4.42,4.319 -8.136,4.319c-3.818,0 -6.53,-1.472 -8.238,-4.319c-1.707,-2.846 -2.611,-6.674 -2.611,-11.385l0,-0.982Z" style="fill:#231f20;fill-rule:nonzero;"/><path d="M799.579,48.88c0,-12.171 -2.612,-22.771 -7.735,-31.703c-5.123,-8.932 -10.95,-14.625 -17.278,-17.177l-0.302,0l-2.612,6.773c4.119,3.14 7.735,8.244 10.649,15.311c3.013,7.067 4.52,15.999 4.52,26.698l0,1.276c0,10.797 -1.507,19.728 -4.42,26.697c-3.014,6.969 -6.529,12.073 -10.749,15.217l2.612,6.871l0.302,0c6.328,-2.552 12.155,-8.346 17.278,-17.18c5.123,-8.932 7.735,-19.532 7.735,-31.703l0,-1.08Z" style="fill:#231f20;fill-rule:nonzero;"/></g><g><path d="M6.952,60.159l80.64,0c3.86,0 6.96,3.1 6.96,6.952l0,4.164c0,3.849 -3.1,6.953 -6.96,6.953l-80.64,0c-3.849,0 -6.952,-3.104 -6.952,-6.953l0,-4.164c0,-3.852 3.103,-6.952 6.952,-6.952Z" style="fill:#231f20;fill-rule:nonzero;"/><path d="M6.952,33.392l80.64,0c3.86,0 6.96,3.103 6.96,6.952l0,4.164c0,3.86 -3.1,6.96 -6.96,6.96l-80.64,0c-3.849,0 -6.952,-3.1 -6.952,-6.96l0,-4.164c0,-3.849 3.103,-6.952 6.952,-6.952Z" style="fill:#231f20;fill-rule:nonzero;"/><path d="M6.952,6.624l80.64,0c3.86,0 6.96,3.103 6.96,6.952l0,4.176c0,3.849 -3.1,6.952 -6.96,6.952l-80.64,0c-3.849,0 -6.952,-3.103 -6.952,-6.952l0,-4.176c0,-3.849 3.103,-6.952 6.952,-6.952Z" style="fill:#231f20;fill-rule:nonzero;"/></g></svg>